# xmcd
#
# Track frame offsets: 
#        150
#        11130
#        22031
#        35619
#        47725
#        59315
#        71218
#        83511
#        94749
#        108568
#        125445
#        138631
#        149572
#        160486
#        171715
#        184244
#        197398
#        209686
#
# Disc length: 2963 seconds
#
# Revision: 0
# Processed by: cddbd v1.5.2PL0 Copyright (c) Steve Scherf et al.
# Submitted via: ExactAudioCopy v1.0b1
#
DISCID=180b9112
DTITLE=Champion Jack Dupree - Bus Station Blues
DYEAR=2009
DGENRE=Blues
TTITLE0=Slow Boogie
TTITLE1=Jitterbug
TTITLE2=My Cabin Inn
TTITLE3=How Long, How Long Blues
TTITLE4=Bad Whiskey And Wild Women
TTITLE5=That's All Right
TTITLE6=My Baby's Gone
TTITLE7=Bus Station Blues
TTITLE8=New Low Down Dog
TTITLE9=Too Evil To Cry
TTITLE10=Mean Old Frisco
TTITLE11=Hard Feeling
TTITLE12=Barrelhouse Mama
TTITLE13=Goin' Back To Louisiana
TTITLE14=Mexican Reminiscences
TTITLE15=Gibing Blues
TTITLE16=Black Cow Blues
TTITLE17=Going Down Slow
EXTD=
EXTT0=
EXTT1=
EXTT2=
EXTT3=
EXTT4=
EXTT5=
EXTT6=
EXTT7=
EXTT8=
EXTT9=
EXTT10=
EXTT11=
EXTT12=
EXTT13=
EXTT14=
EXTT15=
EXTT16=
EXTT17=
PLAYORDER=
